<mxfile host="app.diagrams.net" modified="2023-11-03T15:02:04.334Z" agent="Mozilla/5.0 (Windows NT 10.0; Win64; x64) AppleWebKit/537.36 (KHTML, like Gecko) Chrome/118.0.0.0 Safari/537.36" etag="qyclbGeSei_KFVuJBAcJ" version="22.0.8" type="github">
  <diagram name="Страница 1" id="IM1O5l8puq6AkNADgdny">
    <mxGraphModel dx="1365" dy="524" grid="0" gridSize="10" guides="1" tooltips="1" connect="1" arrows="1" fold="1" page="1" pageScale="1" pageWidth="1169" pageHeight="827" math="0" shadow="0">
      <root>
        <mxCell id="0" />
        <mxCell id="1" parent="0" />
        <mxCell id="15-6eLY7Y1xTpjviWE6E-25" value="" style="edgeStyle=orthogonalEdgeStyle;rounded=0;orthogonalLoop=1;jettySize=auto;html=1;" parent="1" source="15-6eLY7Y1xTpjviWE6E-1" target="15-6eLY7Y1xTpjviWE6E-3" edge="1">
          <mxGeometry relative="1" as="geometry" />
        </mxCell>
        <mxCell id="15-6eLY7Y1xTpjviWE6E-1" value="Пользователь" style="shape=umlActor;verticalLabelPosition=bottom;verticalAlign=top;html=1;outlineConnect=0;fontSize=17;" parent="1" vertex="1">
          <mxGeometry x="216" y="18" width="45" height="80" as="geometry" />
        </mxCell>
        <mxCell id="15-6eLY7Y1xTpjviWE6E-38" style="edgeStyle=orthogonalEdgeStyle;rounded=0;orthogonalLoop=1;jettySize=auto;html=1;entryX=0;entryY=0.5;entryDx=0;entryDy=0;" parent="1" target="T-DnqVNL3Df9SW4JSe4_-6" edge="1">
          <mxGeometry relative="1" as="geometry">
            <mxPoint x="976" y="414" as="sourcePoint" />
            <mxPoint x="1020" y="455" as="targetPoint" />
          </mxGeometry>
        </mxCell>
        <mxCell id="15-6eLY7Y1xTpjviWE6E-26" style="edgeStyle=orthogonalEdgeStyle;rounded=0;orthogonalLoop=1;jettySize=auto;html=1;entryX=0.5;entryY=0;entryDx=0;entryDy=0;" parent="1" source="15-6eLY7Y1xTpjviWE6E-3" target="T-DnqVNL3Df9SW4JSe4_-2" edge="1">
          <mxGeometry relative="1" as="geometry">
            <mxPoint x="86.43999999999994" y="166" as="targetPoint" />
          </mxGeometry>
        </mxCell>
        <mxCell id="15-6eLY7Y1xTpjviWE6E-3" value="&lt;font style=&quot;font-size: 17px;&quot;&gt;Авторизация&lt;br&gt;&amp;nbsp;в системе&lt;/font&gt;" style="ellipse;whiteSpace=wrap;html=1;" parent="1" vertex="1">
          <mxGeometry x="15" y="3" width="140" height="110" as="geometry" />
        </mxCell>
        <mxCell id="15-6eLY7Y1xTpjviWE6E-27" style="edgeStyle=orthogonalEdgeStyle;rounded=0;orthogonalLoop=1;jettySize=auto;html=1;entryX=0.5;entryY=0;entryDx=0;entryDy=0;exitX=0.5;exitY=1;exitDx=0;exitDy=0;" parent="1" source="T-DnqVNL3Df9SW4JSe4_-2" target="15-6eLY7Y1xTpjviWE6E-9" edge="1">
          <mxGeometry relative="1" as="geometry">
            <mxPoint x="86.43999999999994" y="271" as="sourcePoint" />
            <mxPoint x="80" y="280" as="targetPoint" />
          </mxGeometry>
        </mxCell>
        <mxCell id="15-6eLY7Y1xTpjviWE6E-60" style="edgeStyle=orthogonalEdgeStyle;rounded=0;orthogonalLoop=1;jettySize=auto;html=1;entryX=0.5;entryY=0;entryDx=0;entryDy=0;" parent="1" source="15-6eLY7Y1xTpjviWE6E-7" target="15-6eLY7Y1xTpjviWE6E-10" edge="1">
          <mxGeometry relative="1" as="geometry" />
        </mxCell>
        <mxCell id="15-6eLY7Y1xTpjviWE6E-61" style="edgeStyle=orthogonalEdgeStyle;rounded=0;orthogonalLoop=1;jettySize=auto;html=1;exitX=1;exitY=1;exitDx=0;exitDy=0;entryX=0;entryY=1;entryDx=0;entryDy=0;" parent="1" source="15-6eLY7Y1xTpjviWE6E-7" target="15-6eLY7Y1xTpjviWE6E-11" edge="1">
          <mxGeometry relative="1" as="geometry" />
        </mxCell>
        <mxCell id="T-DnqVNL3Df9SW4JSe4_-13" style="edgeStyle=orthogonalEdgeStyle;rounded=0;orthogonalLoop=1;jettySize=auto;html=1;entryX=1;entryY=0.5;entryDx=0;entryDy=0;" parent="1" source="15-6eLY7Y1xTpjviWE6E-7" target="15-6eLY7Y1xTpjviWE6E-19" edge="1">
          <mxGeometry relative="1" as="geometry" />
        </mxCell>
        <mxCell id="15-6eLY7Y1xTpjviWE6E-7" value="Отправка &lt;br style=&quot;font-size: 17px;&quot;&gt;заявления в&lt;br&gt;&amp;nbsp;Ц.С." style="ellipse;whiteSpace=wrap;html=1;fontSize=17;" parent="1" vertex="1">
          <mxGeometry x="415" y="117" width="140" height="110" as="geometry" />
        </mxCell>
        <mxCell id="15-6eLY7Y1xTpjviWE6E-30" style="edgeStyle=orthogonalEdgeStyle;rounded=0;orthogonalLoop=1;jettySize=auto;html=1;entryX=0;entryY=0.5;entryDx=0;entryDy=0;" parent="1" source="15-6eLY7Y1xTpjviWE6E-9" target="T-DnqVNL3Df9SW4JSe4_-4" edge="1">
          <mxGeometry relative="1" as="geometry">
            <mxPoint x="243" y="420" as="targetPoint" />
          </mxGeometry>
        </mxCell>
        <mxCell id="15-6eLY7Y1xTpjviWE6E-9" value="Оплата заявления" style="ellipse;whiteSpace=wrap;html=1;fontSize=17;" parent="1" vertex="1">
          <mxGeometry x="15" y="359" width="140" height="110" as="geometry" />
        </mxCell>
        <mxCell id="15-6eLY7Y1xTpjviWE6E-10" value="Сохранения заявления в &lt;br&gt;БД Ц.С." style="ellipse;whiteSpace=wrap;html=1;fontSize=17;" parent="1" vertex="1">
          <mxGeometry x="415" y="259" width="140" height="110" as="geometry" />
        </mxCell>
        <mxCell id="15-6eLY7Y1xTpjviWE6E-62" style="edgeStyle=orthogonalEdgeStyle;rounded=0;orthogonalLoop=1;jettySize=auto;html=1;entryX=0.5;entryY=0;entryDx=0;entryDy=0;" parent="1" source="15-6eLY7Y1xTpjviWE6E-11" target="15-6eLY7Y1xTpjviWE6E-14" edge="1">
          <mxGeometry relative="1" as="geometry" />
        </mxCell>
        <mxCell id="15-6eLY7Y1xTpjviWE6E-65" style="edgeStyle=orthogonalEdgeStyle;rounded=0;orthogonalLoop=1;jettySize=auto;html=1;exitX=0;exitY=0;exitDx=0;exitDy=0;entryX=1;entryY=0;entryDx=0;entryDy=0;" parent="1" source="15-6eLY7Y1xTpjviWE6E-11" target="15-6eLY7Y1xTpjviWE6E-7" edge="1">
          <mxGeometry relative="1" as="geometry" />
        </mxCell>
        <mxCell id="T-DnqVNL3Df9SW4JSe4_-15" style="edgeStyle=orthogonalEdgeStyle;rounded=0;orthogonalLoop=1;jettySize=auto;html=1;entryX=0.5;entryY=0;entryDx=0;entryDy=0;" parent="1" source="15-6eLY7Y1xTpjviWE6E-11" target="T-DnqVNL3Df9SW4JSe4_-8" edge="1">
          <mxGeometry relative="1" as="geometry">
            <Array as="points">
              <mxPoint x="805" y="172" />
            </Array>
          </mxGeometry>
        </mxCell>
        <mxCell id="15-6eLY7Y1xTpjviWE6E-11" value="Отправка заявления в&lt;br&gt;&amp;nbsp;Г.С." style="ellipse;whiteSpace=wrap;html=1;fontSize=17;" parent="1" vertex="1">
          <mxGeometry x="614" y="117" width="140" height="110" as="geometry" />
        </mxCell>
        <mxCell id="15-6eLY7Y1xTpjviWE6E-36" style="edgeStyle=orthogonalEdgeStyle;rounded=0;orthogonalLoop=1;jettySize=auto;html=1;exitX=1;exitY=0.5;exitDx=0;exitDy=0;" parent="1" source="T-DnqVNL3Df9SW4JSe4_-8" edge="1">
          <mxGeometry relative="1" as="geometry">
            <mxPoint x="894.5" y="491.0000000000002" as="sourcePoint" />
            <mxPoint x="918" y="414" as="targetPoint" />
          </mxGeometry>
        </mxCell>
        <mxCell id="15-6eLY7Y1xTpjviWE6E-14" value="Сохранения заявления в&lt;br&gt;&amp;nbsp;БД Г.С." style="ellipse;whiteSpace=wrap;html=1;fontSize=17;" parent="1" vertex="1">
          <mxGeometry x="614" y="259" width="140" height="110" as="geometry" />
        </mxCell>
        <mxCell id="15-6eLY7Y1xTpjviWE6E-40" style="edgeStyle=orthogonalEdgeStyle;rounded=0;orthogonalLoop=1;jettySize=auto;html=1;entryX=0.5;entryY=1;entryDx=0;entryDy=0;exitX=0.5;exitY=0;exitDx=0;exitDy=0;" parent="1" source="T-DnqVNL3Df9SW4JSe4_-5" target="T-DnqVNL3Df9SW4JSe4_-7" edge="1">
          <mxGeometry relative="1" as="geometry">
            <mxPoint x="1093.25" y="159" as="sourcePoint" />
            <mxPoint x="1060.25" y="130" as="targetPoint" />
          </mxGeometry>
        </mxCell>
        <mxCell id="T-DnqVNL3Df9SW4JSe4_-1" style="edgeStyle=orthogonalEdgeStyle;rounded=0;orthogonalLoop=1;jettySize=auto;html=1;entryX=1;entryY=0.5;entryDx=0;entryDy=0;exitX=0;exitY=0.5;exitDx=0;exitDy=0;" parent="1" source="T-DnqVNL3Df9SW4JSe4_-7" target="15-6eLY7Y1xTpjviWE6E-18" edge="1">
          <mxGeometry relative="1" as="geometry">
            <mxPoint x="964" y="75" as="sourcePoint" />
          </mxGeometry>
        </mxCell>
        <mxCell id="15-6eLY7Y1xTpjviWE6E-64" style="edgeStyle=orthogonalEdgeStyle;rounded=0;orthogonalLoop=1;jettySize=auto;html=1;entryX=0.5;entryY=0;entryDx=0;entryDy=0;exitX=0;exitY=0.5;exitDx=0;exitDy=0;" parent="1" source="15-6eLY7Y1xTpjviWE6E-18" target="15-6eLY7Y1xTpjviWE6E-11" edge="1">
          <mxGeometry relative="1" as="geometry" />
        </mxCell>
        <mxCell id="15-6eLY7Y1xTpjviWE6E-18" value="Отправка решения&amp;nbsp;" style="ellipse;whiteSpace=wrap;html=1;fontSize=17;" parent="1" vertex="1">
          <mxGeometry x="781" y="3" width="140" height="110" as="geometry" />
        </mxCell>
        <mxCell id="15-6eLY7Y1xTpjviWE6E-19" value="Отображение заявления в личном&lt;br&gt;кабинете" style="ellipse;whiteSpace=wrap;html=1;fontSize=17;" parent="1" vertex="1">
          <mxGeometry x="325" y="3" width="140" height="110" as="geometry" />
        </mxCell>
        <mxCell id="15-6eLY7Y1xTpjviWE6E-39" style="edgeStyle=orthogonalEdgeStyle;rounded=0;orthogonalLoop=1;jettySize=auto;html=1;entryX=0.5;entryY=1;entryDx=0;entryDy=0;exitX=0.5;exitY=0;exitDx=0;exitDy=0;" parent="1" source="T-DnqVNL3Df9SW4JSe4_-6" target="T-DnqVNL3Df9SW4JSe4_-5" edge="1">
          <mxGeometry relative="1" as="geometry">
            <mxPoint x="1116.25" y="400" as="sourcePoint" />
            <mxPoint x="1093.25" y="269" as="targetPoint" />
          </mxGeometry>
        </mxCell>
        <mxCell id="T-DnqVNL3Df9SW4JSe4_-2" value="Создание заявления" style="ellipse;whiteSpace=wrap;html=1;fontSize=17;" parent="1" vertex="1">
          <mxGeometry x="15" y="167" width="140" height="110" as="geometry" />
        </mxCell>
        <mxCell id="T-DnqVNL3Df9SW4JSe4_-10" style="edgeStyle=orthogonalEdgeStyle;rounded=0;orthogonalLoop=1;jettySize=auto;html=1;entryX=0;entryY=0.5;entryDx=0;entryDy=0;" parent="1" source="T-DnqVNL3Df9SW4JSe4_-4" target="15-6eLY7Y1xTpjviWE6E-7" edge="1">
          <mxGeometry relative="1" as="geometry">
            <mxPoint x="359" y="170.93048454733457" as="targetPoint" />
            <Array as="points">
              <mxPoint x="359" y="175" />
            </Array>
          </mxGeometry>
        </mxCell>
        <mxCell id="T-DnqVNL3Df9SW4JSe4_-4" value="&lt;font style=&quot;font-size: 18px;&quot;&gt;Регистрация заявления&lt;/font&gt;" style="ellipse;whiteSpace=wrap;html=1;fillColor=default;strokeColor=default;fontSize=17;" parent="1" vertex="1">
          <mxGeometry x="285" y="359" width="140" height="110" as="geometry" />
        </mxCell>
        <mxCell id="T-DnqVNL3Df9SW4JSe4_-5" value="Анализ и просмотр заявления" style="ellipse;whiteSpace=wrap;html=1;fontSize=17;" parent="1" vertex="1">
          <mxGeometry x="1019" y="158" width="140" height="110" as="geometry" />
        </mxCell>
        <mxCell id="T-DnqVNL3Df9SW4JSe4_-6" value="Авторизация в системе" style="ellipse;whiteSpace=wrap;html=1;fontSize=16;" parent="1" vertex="1">
          <mxGeometry x="1019" y="359" width="140" height="110" as="geometry" />
        </mxCell>
        <mxCell id="T-DnqVNL3Df9SW4JSe4_-7" value="Решение о&lt;br style=&quot;border-color: var(--border-color); font-size: 17px;&quot;&gt;заявлении" style="ellipse;whiteSpace=wrap;html=1;fontSize=17;" parent="1" vertex="1">
          <mxGeometry x="1019" y="3" width="140" height="110" as="geometry" />
        </mxCell>
        <mxCell id="T-DnqVNL3Df9SW4JSe4_-8" value="Отображение заявления&lt;br style=&quot;border-color: var(--border-color); font-size: 17px;&quot;&gt;&amp;nbsp;в системе" style="ellipse;whiteSpace=wrap;html=1;fontSize=17;" parent="1" vertex="1">
          <mxGeometry x="735" y="359" width="140" height="110" as="geometry" />
        </mxCell>
        <mxCell id="T-DnqVNL3Df9SW4JSe4_-9" value="Сотрудник" style="shape=umlActor;verticalLabelPosition=bottom;verticalAlign=top;html=1;outlineConnect=0;fontSize=17;" parent="1" vertex="1">
          <mxGeometry x="921" y="363" width="45" height="80" as="geometry" />
        </mxCell>
        <mxCell id="LrRTZ1sWe_wV9hJZzRSK-34" value="" style="edgeStyle=orthogonalEdgeStyle;rounded=0;orthogonalLoop=1;jettySize=auto;html=1;" edge="1" parent="1" source="LrRTZ1sWe_wV9hJZzRSK-35" target="LrRTZ1sWe_wV9hJZzRSK-38">
          <mxGeometry relative="1" as="geometry" />
        </mxCell>
        <mxCell id="LrRTZ1sWe_wV9hJZzRSK-35" value="User" style="shape=umlActor;verticalLabelPosition=bottom;verticalAlign=top;html=1;outlineConnect=0;fontSize=17;" vertex="1" parent="1">
          <mxGeometry x="219" y="647" width="45" height="80" as="geometry" />
        </mxCell>
        <mxCell id="LrRTZ1sWe_wV9hJZzRSK-36" style="edgeStyle=orthogonalEdgeStyle;rounded=0;orthogonalLoop=1;jettySize=auto;html=1;entryX=0;entryY=0.5;entryDx=0;entryDy=0;" edge="1" parent="1" target="LrRTZ1sWe_wV9hJZzRSK-63">
          <mxGeometry relative="1" as="geometry">
            <mxPoint x="979" y="1043" as="sourcePoint" />
            <mxPoint x="1023" y="1084" as="targetPoint" />
          </mxGeometry>
        </mxCell>
        <mxCell id="LrRTZ1sWe_wV9hJZzRSK-37" style="edgeStyle=orthogonalEdgeStyle;rounded=0;orthogonalLoop=1;jettySize=auto;html=1;entryX=0.5;entryY=0;entryDx=0;entryDy=0;" edge="1" parent="1" source="LrRTZ1sWe_wV9hJZzRSK-38" target="LrRTZ1sWe_wV9hJZzRSK-59">
          <mxGeometry relative="1" as="geometry">
            <mxPoint x="89.43999999999994" y="795" as="targetPoint" />
          </mxGeometry>
        </mxCell>
        <mxCell id="LrRTZ1sWe_wV9hJZzRSK-38" value="&lt;font style=&quot;font-size: 18px;&quot;&gt;Authorization in the system&lt;/font&gt;" style="ellipse;whiteSpace=wrap;html=1;" vertex="1" parent="1">
          <mxGeometry x="18" y="632" width="140" height="110" as="geometry" />
        </mxCell>
        <mxCell id="LrRTZ1sWe_wV9hJZzRSK-39" style="edgeStyle=orthogonalEdgeStyle;rounded=0;orthogonalLoop=1;jettySize=auto;html=1;entryX=0.5;entryY=0;entryDx=0;entryDy=0;exitX=0.5;exitY=1;exitDx=0;exitDy=0;" edge="1" parent="1" source="LrRTZ1sWe_wV9hJZzRSK-59" target="LrRTZ1sWe_wV9hJZzRSK-45">
          <mxGeometry relative="1" as="geometry">
            <mxPoint x="89.43999999999994" y="900" as="sourcePoint" />
            <mxPoint x="83" y="909" as="targetPoint" />
          </mxGeometry>
        </mxCell>
        <mxCell id="LrRTZ1sWe_wV9hJZzRSK-40" style="edgeStyle=orthogonalEdgeStyle;rounded=0;orthogonalLoop=1;jettySize=auto;html=1;entryX=0.5;entryY=0;entryDx=0;entryDy=0;" edge="1" parent="1" source="LrRTZ1sWe_wV9hJZzRSK-43" target="LrRTZ1sWe_wV9hJZzRSK-46">
          <mxGeometry relative="1" as="geometry" />
        </mxCell>
        <mxCell id="LrRTZ1sWe_wV9hJZzRSK-41" style="edgeStyle=orthogonalEdgeStyle;rounded=0;orthogonalLoop=1;jettySize=auto;html=1;exitX=1;exitY=1;exitDx=0;exitDy=0;entryX=0;entryY=1;entryDx=0;entryDy=0;" edge="1" parent="1" source="LrRTZ1sWe_wV9hJZzRSK-43" target="LrRTZ1sWe_wV9hJZzRSK-50">
          <mxGeometry relative="1" as="geometry" />
        </mxCell>
        <mxCell id="LrRTZ1sWe_wV9hJZzRSK-42" style="edgeStyle=orthogonalEdgeStyle;rounded=0;orthogonalLoop=1;jettySize=auto;html=1;entryX=1;entryY=0.5;entryDx=0;entryDy=0;" edge="1" parent="1" source="LrRTZ1sWe_wV9hJZzRSK-43" target="LrRTZ1sWe_wV9hJZzRSK-57">
          <mxGeometry relative="1" as="geometry" />
        </mxCell>
        <mxCell id="LrRTZ1sWe_wV9hJZzRSK-43" value="&lt;div&gt;Sending&lt;/div&gt;&lt;div&gt;application to&lt;/div&gt;&lt;div&gt;&amp;nbsp;M.S.&lt;/div&gt;" style="ellipse;whiteSpace=wrap;html=1;fontSize=17;" vertex="1" parent="1">
          <mxGeometry x="418" y="746" width="140" height="110" as="geometry" />
        </mxCell>
        <mxCell id="LrRTZ1sWe_wV9hJZzRSK-44" style="edgeStyle=orthogonalEdgeStyle;rounded=0;orthogonalLoop=1;jettySize=auto;html=1;entryX=0;entryY=0.5;entryDx=0;entryDy=0;" edge="1" parent="1" source="LrRTZ1sWe_wV9hJZzRSK-45" target="LrRTZ1sWe_wV9hJZzRSK-61">
          <mxGeometry relative="1" as="geometry">
            <mxPoint x="246" y="1049" as="targetPoint" />
          </mxGeometry>
        </mxCell>
        <mxCell id="LrRTZ1sWe_wV9hJZzRSK-45" value="Payment of application" style="ellipse;whiteSpace=wrap;html=1;fontSize=17;" vertex="1" parent="1">
          <mxGeometry x="18" y="988" width="140" height="110" as="geometry" />
        </mxCell>
        <mxCell id="LrRTZ1sWe_wV9hJZzRSK-46" value="&lt;div&gt;Saving the application in&lt;/div&gt;&lt;div&gt;M.S. DB.&lt;/div&gt;" style="ellipse;whiteSpace=wrap;html=1;fontSize=17;" vertex="1" parent="1">
          <mxGeometry x="418" y="888" width="140" height="110" as="geometry" />
        </mxCell>
        <mxCell id="LrRTZ1sWe_wV9hJZzRSK-47" style="edgeStyle=orthogonalEdgeStyle;rounded=0;orthogonalLoop=1;jettySize=auto;html=1;entryX=0.5;entryY=0;entryDx=0;entryDy=0;" edge="1" parent="1" source="LrRTZ1sWe_wV9hJZzRSK-50" target="LrRTZ1sWe_wV9hJZzRSK-52">
          <mxGeometry relative="1" as="geometry" />
        </mxCell>
        <mxCell id="LrRTZ1sWe_wV9hJZzRSK-48" style="edgeStyle=orthogonalEdgeStyle;rounded=0;orthogonalLoop=1;jettySize=auto;html=1;exitX=0;exitY=0;exitDx=0;exitDy=0;entryX=1;entryY=0;entryDx=0;entryDy=0;" edge="1" parent="1" source="LrRTZ1sWe_wV9hJZzRSK-50" target="LrRTZ1sWe_wV9hJZzRSK-43">
          <mxGeometry relative="1" as="geometry" />
        </mxCell>
        <mxCell id="LrRTZ1sWe_wV9hJZzRSK-49" style="edgeStyle=orthogonalEdgeStyle;rounded=0;orthogonalLoop=1;jettySize=auto;html=1;entryX=0.5;entryY=0;entryDx=0;entryDy=0;" edge="1" parent="1" source="LrRTZ1sWe_wV9hJZzRSK-50" target="LrRTZ1sWe_wV9hJZzRSK-65">
          <mxGeometry relative="1" as="geometry">
            <Array as="points">
              <mxPoint x="808" y="801" />
            </Array>
          </mxGeometry>
        </mxCell>
        <mxCell id="LrRTZ1sWe_wV9hJZzRSK-50" value="&lt;div&gt;Sending an application to&lt;/div&gt;&lt;div&gt;&amp;nbsp;S.S.&lt;/div&gt;" style="ellipse;whiteSpace=wrap;html=1;fontSize=17;" vertex="1" parent="1">
          <mxGeometry x="617" y="746" width="140" height="110" as="geometry" />
        </mxCell>
        <mxCell id="LrRTZ1sWe_wV9hJZzRSK-51" style="edgeStyle=orthogonalEdgeStyle;rounded=0;orthogonalLoop=1;jettySize=auto;html=1;exitX=1;exitY=0.5;exitDx=0;exitDy=0;" edge="1" parent="1" source="LrRTZ1sWe_wV9hJZzRSK-65">
          <mxGeometry relative="1" as="geometry">
            <mxPoint x="897.5" y="1120.0000000000002" as="sourcePoint" />
            <mxPoint x="921" y="1043" as="targetPoint" />
          </mxGeometry>
        </mxCell>
        <mxCell id="LrRTZ1sWe_wV9hJZzRSK-52" value="&lt;div&gt;Saving the statement in&lt;/div&gt;&lt;div&gt;&amp;nbsp;S.S. DB.&lt;/div&gt;" style="ellipse;whiteSpace=wrap;html=1;fontSize=17;" vertex="1" parent="1">
          <mxGeometry x="617" y="888" width="140" height="110" as="geometry" />
        </mxCell>
        <mxCell id="LrRTZ1sWe_wV9hJZzRSK-53" style="edgeStyle=orthogonalEdgeStyle;rounded=0;orthogonalLoop=1;jettySize=auto;html=1;entryX=0.5;entryY=1;entryDx=0;entryDy=0;exitX=0.5;exitY=0;exitDx=0;exitDy=0;" edge="1" parent="1" source="LrRTZ1sWe_wV9hJZzRSK-62" target="LrRTZ1sWe_wV9hJZzRSK-64">
          <mxGeometry relative="1" as="geometry">
            <mxPoint x="1096.25" y="788" as="sourcePoint" />
            <mxPoint x="1063.25" y="759" as="targetPoint" />
          </mxGeometry>
        </mxCell>
        <mxCell id="LrRTZ1sWe_wV9hJZzRSK-54" style="edgeStyle=orthogonalEdgeStyle;rounded=0;orthogonalLoop=1;jettySize=auto;html=1;entryX=1;entryY=0.5;entryDx=0;entryDy=0;exitX=0;exitY=0.5;exitDx=0;exitDy=0;" edge="1" parent="1" source="LrRTZ1sWe_wV9hJZzRSK-64" target="LrRTZ1sWe_wV9hJZzRSK-56">
          <mxGeometry relative="1" as="geometry">
            <mxPoint x="967" y="704" as="sourcePoint" />
          </mxGeometry>
        </mxCell>
        <mxCell id="LrRTZ1sWe_wV9hJZzRSK-55" style="edgeStyle=orthogonalEdgeStyle;rounded=0;orthogonalLoop=1;jettySize=auto;html=1;entryX=0.5;entryY=0;entryDx=0;entryDy=0;exitX=0;exitY=0.5;exitDx=0;exitDy=0;" edge="1" parent="1" source="LrRTZ1sWe_wV9hJZzRSK-56" target="LrRTZ1sWe_wV9hJZzRSK-50">
          <mxGeometry relative="1" as="geometry" />
        </mxCell>
        <mxCell id="LrRTZ1sWe_wV9hJZzRSK-56" value="Sending a decision" style="ellipse;whiteSpace=wrap;html=1;fontSize=17;" vertex="1" parent="1">
          <mxGeometry x="784" y="632" width="140" height="110" as="geometry" />
        </mxCell>
        <mxCell id="LrRTZ1sWe_wV9hJZzRSK-57" value="Displaying the application in the personal &lt;br&gt;cabinet" style="ellipse;whiteSpace=wrap;html=1;fontSize=17;" vertex="1" parent="1">
          <mxGeometry x="328" y="632" width="140" height="110" as="geometry" />
        </mxCell>
        <mxCell id="LrRTZ1sWe_wV9hJZzRSK-58" style="edgeStyle=orthogonalEdgeStyle;rounded=0;orthogonalLoop=1;jettySize=auto;html=1;entryX=0.5;entryY=1;entryDx=0;entryDy=0;exitX=0.5;exitY=0;exitDx=0;exitDy=0;" edge="1" parent="1" source="LrRTZ1sWe_wV9hJZzRSK-63" target="LrRTZ1sWe_wV9hJZzRSK-62">
          <mxGeometry relative="1" as="geometry">
            <mxPoint x="1119.25" y="1029" as="sourcePoint" />
            <mxPoint x="1096.25" y="898" as="targetPoint" />
          </mxGeometry>
        </mxCell>
        <mxCell id="LrRTZ1sWe_wV9hJZzRSK-59" value="Creating a statement" style="ellipse;whiteSpace=wrap;html=1;fontSize=17;" vertex="1" parent="1">
          <mxGeometry x="18" y="796" width="140" height="110" as="geometry" />
        </mxCell>
        <mxCell id="LrRTZ1sWe_wV9hJZzRSK-60" style="edgeStyle=orthogonalEdgeStyle;rounded=0;orthogonalLoop=1;jettySize=auto;html=1;entryX=0;entryY=0.5;entryDx=0;entryDy=0;" edge="1" parent="1" source="LrRTZ1sWe_wV9hJZzRSK-61" target="LrRTZ1sWe_wV9hJZzRSK-43">
          <mxGeometry relative="1" as="geometry">
            <mxPoint x="362" y="799.9304845473346" as="targetPoint" />
            <Array as="points">
              <mxPoint x="362" y="804" />
            </Array>
          </mxGeometry>
        </mxCell>
        <mxCell id="LrRTZ1sWe_wV9hJZzRSK-61" value="&lt;font style=&quot;font-size: 18px;&quot;&gt;Registration of the application&lt;/font&gt;" style="ellipse;whiteSpace=wrap;html=1;fillColor=default;strokeColor=default;fontSize=17;" vertex="1" parent="1">
          <mxGeometry x="288" y="988" width="140" height="110" as="geometry" />
        </mxCell>
        <mxCell id="LrRTZ1sWe_wV9hJZzRSK-62" value="Analyzing and reviewing the statement" style="ellipse;whiteSpace=wrap;html=1;fontSize=17;" vertex="1" parent="1">
          <mxGeometry x="1022" y="787" width="140" height="110" as="geometry" />
        </mxCell>
        <mxCell id="LrRTZ1sWe_wV9hJZzRSK-63" value="Authorization in the system" style="ellipse;whiteSpace=wrap;html=1;fontSize=16;" vertex="1" parent="1">
          <mxGeometry x="1022" y="988" width="140" height="110" as="geometry" />
        </mxCell>
        <mxCell id="LrRTZ1sWe_wV9hJZzRSK-64" value="&lt;div&gt;Decision on&lt;/div&gt;&lt;div&gt;application&lt;/div&gt;" style="ellipse;whiteSpace=wrap;html=1;fontSize=17;" vertex="1" parent="1">
          <mxGeometry x="1022" y="632" width="140" height="110" as="geometry" />
        </mxCell>
        <mxCell id="LrRTZ1sWe_wV9hJZzRSK-65" value="&lt;div&gt;Displaying the application&lt;/div&gt;&lt;div&gt;&amp;nbsp;in the system&lt;/div&gt;" style="ellipse;whiteSpace=wrap;html=1;fontSize=17;" vertex="1" parent="1">
          <mxGeometry x="738" y="988" width="140" height="110" as="geometry" />
        </mxCell>
        <mxCell id="LrRTZ1sWe_wV9hJZzRSK-66" value="Employee" style="shape=umlActor;verticalLabelPosition=bottom;verticalAlign=top;html=1;outlineConnect=0;fontSize=17;" vertex="1" parent="1">
          <mxGeometry x="924" y="992" width="45" height="80" as="geometry" />
        </mxCell>
      </root>
    </mxGraphModel>
  </diagram>
</mxfile>
